<svg xmlns="http://www.w3.org/2000/svg" viewBox="0 0 64 64" role="img" aria-label="Baristo.Online"><defs><linearGradient id="g" x1="0" y1="0" x2="1" y2="1"><stop stop-color="#e7b39a"/><stop offset="1" stop-color="#9a4f38"/></linearGradient></defs><circle cx="32" cy="32" r="30" fill="#11100e" stroke="url(#g)" stroke-width="3"/><path d="M38 13c-9 2-16 10-16 20 0 9 6 16 15 18-5-5-7-10-7-16 0-8 3-15 8-22Z" fill="url(#g)"/><path d="M25 18h14l-2 7H27l-2-7Zm3-5 4 4 4-4 4 4-2 4H26l-2-4 4-4Z" fill="#fcf7ee"/><path d="M42 30c4 2 6 6 5 10-4 0-8-2-10-5 1-3 2-4 5-5Z" fill="#fcf7ee"/></svg>